# xmcd
# 
# Track frame offsets:
#     150
#     27342
#     45817
#     65932
#     89030
#     112927
#     134547
#     154165
#     172870
# 
# Disc length: 2595
# 
# Revision: 4
# Processed by: cddbd v1.5.2PL0 Copyright (c) Steve Scherf et al.
# Submitted via: fre:ac v1.0.17
# 
DISCID=730a2109
DTITLE=Jermaine Jackson - Jermaine Jackson
DYEAR=1984
DGENRE=Pop
TTITLE0=Dynamite
TTITLE1=Sweetest Sweetest
TTITLE2=Tell Me I'm Not Dreamin' (Too Good To Be True) (Duet Michael Jackson)
TTITLE3=Escape From The Planet Of The Ant Men
TTITLE4=Come To Me (One Way Or Another)
TTITLE5=Do What You Do
TTITLE6=Take Good Care Of My Heart (Duet Whitney Houston)
TTITLE7=Some Things Are Private
TTITLE8=Oh Mother
EXTD=
EXTT0=
EXTT1=
EXTT2=
EXTT3=
EXTT4=
EXTT5=
EXTT6=
EXTT7=
EXTT8=
PLAYORDER=
